<mxfile host="app.diagrams.net" modified="2022-04-15T12:30:28.285Z" agent="5.0 (Macintosh; Intel Mac OS X 10_15_7) AppleWebKit/537.36 (KHTML, like Gecko) Chrome/100.0.4896.88 Safari/537.36" etag="xZTzwx08qmykNV01v3H-" version="17.2.5" type="github">
  <diagram id="xDiTu3_3AWAYvyxSFZS6" name="Page-1">
    <mxGraphModel dx="1298" dy="782" grid="1" gridSize="10" guides="1" tooltips="1" connect="1" arrows="1" fold="1" page="1" pageScale="1" pageWidth="827" pageHeight="1169" math="0" shadow="0">
      <root>
        <mxCell id="0" />
        <mxCell id="1" parent="0" />
        <mxCell id="-li0W7I0oBlAdKbRJxmY-7" style="edgeStyle=orthogonalEdgeStyle;rounded=0;orthogonalLoop=1;jettySize=auto;html=1;exitX=0.5;exitY=1;exitDx=0;exitDy=0;entryX=0.5;entryY=0;entryDx=0;entryDy=0;" edge="1" parent="1" source="-li0W7I0oBlAdKbRJxmY-4">
          <mxGeometry relative="1" as="geometry">
            <mxPoint x="100" y="160" as="targetPoint" />
          </mxGeometry>
        </mxCell>
        <mxCell id="-li0W7I0oBlAdKbRJxmY-8" style="edgeStyle=orthogonalEdgeStyle;rounded=0;orthogonalLoop=1;jettySize=auto;html=1;exitX=0.5;exitY=1;exitDx=0;exitDy=0;entryX=0.5;entryY=0;entryDx=0;entryDy=0;" edge="1" parent="1" source="-li0W7I0oBlAdKbRJxmY-4">
          <mxGeometry relative="1" as="geometry">
            <mxPoint x="260" y="160" as="targetPoint" />
          </mxGeometry>
        </mxCell>
        <mxCell id="-li0W7I0oBlAdKbRJxmY-4" value="Marketing API" style="rounded=1;whiteSpace=wrap;html=1;" vertex="1" parent="1">
          <mxGeometry x="120" y="80" width="120" height="40" as="geometry" />
        </mxCell>
        <mxCell id="-li0W7I0oBlAdKbRJxmY-13" style="edgeStyle=orthogonalEdgeStyle;rounded=0;orthogonalLoop=1;jettySize=auto;html=1;exitX=0.5;exitY=1;exitDx=0;exitDy=0;entryX=0.5;entryY=0;entryDx=0;entryDy=0;" edge="1" parent="1" source="-li0W7I0oBlAdKbRJxmY-9" target="-li0W7I0oBlAdKbRJxmY-11">
          <mxGeometry relative="1" as="geometry" />
        </mxCell>
        <mxCell id="-li0W7I0oBlAdKbRJxmY-48" style="edgeStyle=orthogonalEdgeStyle;rounded=0;jumpStyle=arc;orthogonalLoop=1;jettySize=auto;html=1;exitX=0.75;exitY=1;exitDx=0;exitDy=0;entryX=0;entryY=0.5;entryDx=0;entryDy=0;fillColor=#f8cecc;strokeColor=#b85450;" edge="1" parent="1" source="-li0W7I0oBlAdKbRJxmY-9" target="-li0W7I0oBlAdKbRJxmY-47">
          <mxGeometry relative="1" as="geometry" />
        </mxCell>
        <mxCell id="-li0W7I0oBlAdKbRJxmY-9" value="ad-dsp-api" style="rounded=1;whiteSpace=wrap;html=1;" vertex="1" parent="1">
          <mxGeometry x="40" y="160" width="120" height="40" as="geometry" />
        </mxCell>
        <mxCell id="-li0W7I0oBlAdKbRJxmY-14" style="edgeStyle=orthogonalEdgeStyle;rounded=0;orthogonalLoop=1;jettySize=auto;html=1;exitX=0.5;exitY=1;exitDx=0;exitDy=0;entryX=0.5;entryY=0;entryDx=0;entryDy=0;" edge="1" parent="1" source="-li0W7I0oBlAdKbRJxmY-10" target="-li0W7I0oBlAdKbRJxmY-12">
          <mxGeometry relative="1" as="geometry" />
        </mxCell>
        <mxCell id="-li0W7I0oBlAdKbRJxmY-35" style="edgeStyle=orthogonalEdgeStyle;rounded=0;orthogonalLoop=1;jettySize=auto;html=1;exitX=1;exitY=0.5;exitDx=0;exitDy=0;" edge="1" parent="1" source="-li0W7I0oBlAdKbRJxmY-10" target="-li0W7I0oBlAdKbRJxmY-34">
          <mxGeometry relative="1" as="geometry" />
        </mxCell>
        <mxCell id="-li0W7I0oBlAdKbRJxmY-10" value="ad-esp-api" style="rounded=1;whiteSpace=wrap;html=1;" vertex="1" parent="1">
          <mxGeometry x="200" y="160" width="120" height="40" as="geometry" />
        </mxCell>
        <mxCell id="-li0W7I0oBlAdKbRJxmY-18" style="edgeStyle=orthogonalEdgeStyle;rounded=0;orthogonalLoop=1;jettySize=auto;html=1;exitX=0.5;exitY=1;exitDx=0;exitDy=0;" edge="1" parent="1" source="-li0W7I0oBlAdKbRJxmY-11" target="-li0W7I0oBlAdKbRJxmY-16">
          <mxGeometry relative="1" as="geometry" />
        </mxCell>
        <mxCell id="-li0W7I0oBlAdKbRJxmY-11" value="adCoreDspRpcService" style="rounded=1;whiteSpace=wrap;html=1;" vertex="1" parent="1">
          <mxGeometry x="40" y="280" width="120" height="40" as="geometry" />
        </mxCell>
        <mxCell id="-li0W7I0oBlAdKbRJxmY-19" style="edgeStyle=orthogonalEdgeStyle;rounded=0;orthogonalLoop=1;jettySize=auto;html=1;exitX=0.5;exitY=1;exitDx=0;exitDy=0;" edge="1" parent="1" source="-li0W7I0oBlAdKbRJxmY-12">
          <mxGeometry relative="1" as="geometry">
            <mxPoint x="180" y="360" as="targetPoint" />
          </mxGeometry>
        </mxCell>
        <mxCell id="-li0W7I0oBlAdKbRJxmY-21" style="edgeStyle=orthogonalEdgeStyle;rounded=0;orthogonalLoop=1;jettySize=auto;html=1;exitX=0.5;exitY=1;exitDx=0;exitDy=0;" edge="1" parent="1" source="-li0W7I0oBlAdKbRJxmY-12">
          <mxGeometry relative="1" as="geometry">
            <mxPoint x="340" y="360" as="targetPoint" />
          </mxGeometry>
        </mxCell>
        <mxCell id="-li0W7I0oBlAdKbRJxmY-12" value="adCoreEspRpcService" style="rounded=1;whiteSpace=wrap;html=1;" vertex="1" parent="1">
          <mxGeometry x="200" y="280" width="120" height="40" as="geometry" />
        </mxCell>
        <mxCell id="-li0W7I0oBlAdKbRJxmY-20" style="edgeStyle=orthogonalEdgeStyle;rounded=0;orthogonalLoop=1;jettySize=auto;html=1;exitX=0.5;exitY=1;exitDx=0;exitDy=0;" edge="1" parent="1" source="-li0W7I0oBlAdKbRJxmY-15" target="-li0W7I0oBlAdKbRJxmY-17">
          <mxGeometry relative="1" as="geometry" />
        </mxCell>
        <mxCell id="-li0W7I0oBlAdKbRJxmY-15" value="adCoreFansTopRpcService" style="rounded=1;whiteSpace=wrap;html=1;" vertex="1" parent="1">
          <mxGeometry x="360" y="280" width="160" height="40" as="geometry" />
        </mxCell>
        <mxCell id="-li0W7I0oBlAdKbRJxmY-16" value="adDsp" style="shape=datastore;whiteSpace=wrap;html=1;" vertex="1" parent="1">
          <mxGeometry x="150" y="360" width="60" height="60" as="geometry" />
        </mxCell>
        <mxCell id="-li0W7I0oBlAdKbRJxmY-25" style="edgeStyle=orthogonalEdgeStyle;rounded=0;orthogonalLoop=1;jettySize=auto;html=1;exitX=1;exitY=0.5;exitDx=0;exitDy=0;" edge="1" parent="1" source="-li0W7I0oBlAdKbRJxmY-17" target="-li0W7I0oBlAdKbRJxmY-24">
          <mxGeometry relative="1" as="geometry" />
        </mxCell>
        <mxCell id="-li0W7I0oBlAdKbRJxmY-17" value="adCore" style="shape=datastore;whiteSpace=wrap;html=1;" vertex="1" parent="1">
          <mxGeometry x="310" y="360" width="60" height="60" as="geometry" />
        </mxCell>
        <mxCell id="-li0W7I0oBlAdKbRJxmY-29" style="edgeStyle=orthogonalEdgeStyle;rounded=0;orthogonalLoop=1;jettySize=auto;html=1;exitX=0.5;exitY=1;exitDx=0;exitDy=0;entryX=0.5;entryY=0;entryDx=0;entryDy=0;" edge="1" parent="1" source="-li0W7I0oBlAdKbRJxmY-22" target="-li0W7I0oBlAdKbRJxmY-24">
          <mxGeometry relative="1" as="geometry" />
        </mxCell>
        <mxCell id="-li0W7I0oBlAdKbRJxmY-22" value="adMatrix" style="rounded=1;whiteSpace=wrap;html=1;" vertex="1" parent="1">
          <mxGeometry x="920" y="280" width="120" height="40" as="geometry" />
        </mxCell>
        <mxCell id="-li0W7I0oBlAdKbRJxmY-24" value="Ktable" style="shape=datastore;whiteSpace=wrap;html=1;" vertex="1" parent="1">
          <mxGeometry x="950" y="360" width="60" height="60" as="geometry" />
        </mxCell>
        <mxCell id="-li0W7I0oBlAdKbRJxmY-28" style="edgeStyle=orthogonalEdgeStyle;rounded=0;orthogonalLoop=1;jettySize=auto;html=1;exitX=0.5;exitY=1;exitDx=0;exitDy=0;entryX=0.5;entryY=0;entryDx=0;entryDy=0;" edge="1" parent="1" source="-li0W7I0oBlAdKbRJxmY-27" target="-li0W7I0oBlAdKbRJxmY-22">
          <mxGeometry relative="1" as="geometry" />
        </mxCell>
        <mxCell id="-li0W7I0oBlAdKbRJxmY-27" value="Reco" style="rounded=1;whiteSpace=wrap;html=1;" vertex="1" parent="1">
          <mxGeometry x="920" y="200" width="120" height="40" as="geometry" />
        </mxCell>
        <mxCell id="-li0W7I0oBlAdKbRJxmY-32" style="edgeStyle=orthogonalEdgeStyle;rounded=0;orthogonalLoop=1;jettySize=auto;html=1;exitX=0.5;exitY=1;exitDx=0;exitDy=0;entryX=0.5;entryY=0;entryDx=0;entryDy=0;" edge="1" parent="1" source="-li0W7I0oBlAdKbRJxmY-30" target="-li0W7I0oBlAdKbRJxmY-27">
          <mxGeometry relative="1" as="geometry" />
        </mxCell>
        <mxCell id="-li0W7I0oBlAdKbRJxmY-44" style="edgeStyle=orthogonalEdgeStyle;rounded=0;orthogonalLoop=1;jettySize=auto;html=1;exitX=0;exitY=0.5;exitDx=0;exitDy=0;" edge="1" parent="1" source="-li0W7I0oBlAdKbRJxmY-30" target="-li0W7I0oBlAdKbRJxmY-38">
          <mxGeometry relative="1" as="geometry" />
        </mxCell>
        <mxCell id="-li0W7I0oBlAdKbRJxmY-45" value="data pipeline" style="edgeLabel;html=1;align=center;verticalAlign=middle;resizable=0;points=[];" vertex="1" connectable="0" parent="-li0W7I0oBlAdKbRJxmY-44">
          <mxGeometry x="0.1143" y="1" relative="1" as="geometry">
            <mxPoint as="offset" />
          </mxGeometry>
        </mxCell>
        <mxCell id="-li0W7I0oBlAdKbRJxmY-30" value="kuaishou-api" style="rounded=1;whiteSpace=wrap;html=1;" vertex="1" parent="1">
          <mxGeometry x="840" y="120" width="120" height="40" as="geometry" />
        </mxCell>
        <mxCell id="-li0W7I0oBlAdKbRJxmY-33" style="edgeStyle=orthogonalEdgeStyle;rounded=0;orthogonalLoop=1;jettySize=auto;html=1;exitX=0.5;exitY=1;exitDx=0;exitDy=0;entryX=0.5;entryY=0;entryDx=0;entryDy=0;" edge="1" parent="1" source="-li0W7I0oBlAdKbRJxmY-31" target="-li0W7I0oBlAdKbRJxmY-27">
          <mxGeometry relative="1" as="geometry" />
        </mxCell>
        <mxCell id="-li0W7I0oBlAdKbRJxmY-51" style="edgeStyle=orthogonalEdgeStyle;rounded=0;jumpStyle=arc;orthogonalLoop=1;jettySize=auto;html=1;exitX=1;exitY=0.5;exitDx=0;exitDy=0;entryX=0.583;entryY=0;entryDx=0;entryDy=0;entryPerimeter=0;" edge="1" parent="1" source="-li0W7I0oBlAdKbRJxmY-31" target="-li0W7I0oBlAdKbRJxmY-50">
          <mxGeometry relative="1" as="geometry" />
        </mxCell>
        <mxCell id="-li0W7I0oBlAdKbRJxmY-31" value="e-api" style="rounded=1;whiteSpace=wrap;html=1;" vertex="1" parent="1">
          <mxGeometry x="1000" y="120" width="120" height="40" as="geometry" />
        </mxCell>
        <mxCell id="-li0W7I0oBlAdKbRJxmY-37" style="edgeStyle=orthogonalEdgeStyle;rounded=0;orthogonalLoop=1;jettySize=auto;html=1;exitX=1;exitY=0.5;exitDx=0;exitDy=0;entryX=0.5;entryY=0;entryDx=0;entryDy=0;fillColor=#f8cecc;strokeColor=#b85450;" edge="1" parent="1" source="-li0W7I0oBlAdKbRJxmY-34" target="-li0W7I0oBlAdKbRJxmY-36">
          <mxGeometry relative="1" as="geometry" />
        </mxCell>
        <mxCell id="-li0W7I0oBlAdKbRJxmY-34" value="adEspRpcService" style="rounded=1;whiteSpace=wrap;html=1;" vertex="1" parent="1">
          <mxGeometry x="360" y="160" width="120" height="40" as="geometry" />
        </mxCell>
        <mxCell id="-li0W7I0oBlAdKbRJxmY-39" style="edgeStyle=orthogonalEdgeStyle;rounded=0;orthogonalLoop=1;jettySize=auto;html=1;exitX=1;exitY=0.5;exitDx=0;exitDy=0;entryX=0;entryY=0.5;entryDx=0;entryDy=0;" edge="1" parent="1" source="-li0W7I0oBlAdKbRJxmY-36" target="-li0W7I0oBlAdKbRJxmY-38">
          <mxGeometry relative="1" as="geometry" />
        </mxCell>
        <mxCell id="-li0W7I0oBlAdKbRJxmY-36" value="adr" style="rounded=1;whiteSpace=wrap;html=1;" vertex="1" parent="1">
          <mxGeometry x="560" y="280" width="120" height="40" as="geometry" />
        </mxCell>
        <mxCell id="-li0W7I0oBlAdKbRJxmY-38" value="ClickHouse" style="shape=datastore;whiteSpace=wrap;html=1;" vertex="1" parent="1">
          <mxGeometry x="730" y="270" width="60" height="60" as="geometry" />
        </mxCell>
        <mxCell id="-li0W7I0oBlAdKbRJxmY-49" style="edgeStyle=orthogonalEdgeStyle;rounded=0;jumpStyle=arc;orthogonalLoop=1;jettySize=auto;html=1;exitX=1;exitY=0.5;exitDx=0;exitDy=0;entryX=0.5;entryY=0;entryDx=0;entryDy=0;fillColor=#f8cecc;strokeColor=#b85450;" edge="1" parent="1" source="-li0W7I0oBlAdKbRJxmY-47" target="-li0W7I0oBlAdKbRJxmY-36">
          <mxGeometry relative="1" as="geometry" />
        </mxCell>
        <mxCell id="-li0W7I0oBlAdKbRJxmY-47" value="adDspRpcService" style="rounded=1;whiteSpace=wrap;html=1;" vertex="1" parent="1">
          <mxGeometry x="360" y="220" width="120" height="40" as="geometry" />
        </mxCell>
        <mxCell id="-li0W7I0oBlAdKbRJxmY-50" value="adInspireService" style="rounded=1;whiteSpace=wrap;html=1;" vertex="1" parent="1">
          <mxGeometry x="1080" y="280" width="120" height="40" as="geometry" />
        </mxCell>
        <mxCell id="-li0W7I0oBlAdKbRJxmY-53" style="edgeStyle=orthogonalEdgeStyle;rounded=0;jumpStyle=arc;orthogonalLoop=1;jettySize=auto;html=1;exitX=0;exitY=0.75;exitDx=0;exitDy=0;entryX=0.5;entryY=0;entryDx=0;entryDy=0;" edge="1" parent="1" source="-li0W7I0oBlAdKbRJxmY-52" target="-li0W7I0oBlAdKbRJxmY-30">
          <mxGeometry relative="1" as="geometry" />
        </mxCell>
        <mxCell id="-li0W7I0oBlAdKbRJxmY-54" style="edgeStyle=orthogonalEdgeStyle;rounded=0;jumpStyle=arc;orthogonalLoop=1;jettySize=auto;html=1;exitX=1;exitY=0.75;exitDx=0;exitDy=0;entryX=0.5;entryY=0;entryDx=0;entryDy=0;" edge="1" parent="1" source="-li0W7I0oBlAdKbRJxmY-52" target="-li0W7I0oBlAdKbRJxmY-31">
          <mxGeometry relative="1" as="geometry" />
        </mxCell>
        <mxCell id="-li0W7I0oBlAdKbRJxmY-52" value="user" style="shape=actor;whiteSpace=wrap;html=1;" vertex="1" parent="1">
          <mxGeometry x="960" y="40" width="40" height="60" as="geometry" />
        </mxCell>
      </root>
    </mxGraphModel>
  </diagram>
</mxfile>
